<svg width="1059" height="668" viewBox="0 0 1059 668" fill="none" xmlns="http://www.w3.org/2000/svg">
<g id="undraw_activity_tracker_1l9o 1" clip-path="url(#clip0)">
<g id="tree">
<path id="Vector" d="M59.843 624.733C59.6135 624.358 54.2023 615.323 52.3264 596.561C50.6056 579.348 51.7121 550.334 66.759 509.863C95.2648 433.192 60.1896 371.329 59.8312 370.713L61.5617 369.709C61.6525 369.865 70.7033 385.638 76.05 410.753C83.1146 444.051 80.5421 478.672 68.634 510.56C40.177 587.1 61.3332 623.333 61.55 623.691L59.843 624.733Z" fill="#3F3D56"/>
<path id="Vector_2" d="M48.6965 366.211C55.8762 366.211 61.6965 360.391 61.6965 353.211C61.6965 346.031 55.8762 340.211 48.6965 340.211C41.5168 340.211 35.6965 346.031 35.6965 353.211C35.6965 360.391 41.5168 366.211 48.6965 366.211Z" fill="#AD0002"/>
<path id="Vector_3" d="M89.6965 414.211C96.8762 414.211 102.697 408.391 102.697 401.211C102.697 394.031 96.8762 388.211 89.6965 388.211C82.5168 388.211 76.6965 394.031 76.6965 401.211C76.6965 408.391 82.5168 414.211 89.6965 414.211Z" fill="#3F3D56"/>
<path id="Vector_4" d="M61.6965 446.211C68.8762 446.211 74.6965 440.391 74.6965 433.211C74.6965 426.031 68.8762 420.211 61.6965 420.211C54.5168 420.211 48.6965 426.031 48.6965 433.211C48.6965 440.391 54.5168 446.211 61.6965 446.211Z" fill="#AD0002"/>
<path id="Vector_5" d="M95.6965 473.211C102.876 473.211 108.696 467.391 108.696 460.211C108.696 453.031 102.876 447.211 95.6965 447.211C88.5168 447.211 82.6965 453.031 82.6965 460.211C82.6965 467.391 88.5168 473.211 95.6965 473.211Z" fill="#AD0002"/>
<path id="Vector_6" d="M51.6965 515.211C58.8762 515.211 64.6965 509.391 64.6965 502.211C64.6965 495.031 58.8762 489.211 51.6965 489.211C44.5168 489.211 38.6965 495.031 38.6965 502.211C38.6965 509.391 44.5168 515.211 51.6965 515.211Z" fill="#3F3D56"/>
<path id="Vector_7" d="M67.6965 625.211C67.6965 625.211 54.6965 593.211 93.6965 569.211L67.6965 625.211Z" fill="#3F3D56"/>
<path id="Vector_8" d="M51.7085 624.631C51.7085 624.631 45.7921 590.601 0 590.893L51.7085 624.631Z" fill="#3F3D56"/>
</g>
<path id="Vector 6" d="M108.5 797.5C227.3 858.3 383.667 743.833 447 679C462.667 679 547.3 655.3 760.5 560.5C1027 442 756.5 -198 494 56.5001C231.5 311 61.5 204.5 15 306.5C-31.5 408.5 -40 721.5 108.5 797.5Z" fill="url(#paint0_linear)"/>
<g id="leaf shade">
<path id="Vector 1" d="M44 507L52 499V507H44Z" fill="white" stroke="white"/>
<path id="Vector 2" d="M54 441L62 433V441H54Z" fill="white" stroke="white"/>
<path id="Vector 3" d="M88 468L96 460V468H88Z" fill="white" stroke="white"/>
<path id="Vector 4" d="M83 409L91 401V409H83Z" fill="white" stroke="white"/>
<path id="Vector 5" d="M41 361L49 353V361H41Z" fill="white" stroke="white"/>
</g>
<g id="human">
<path id="Vector_9" d="M232.418 32.2004H232.418C266.074 32.2004 293.358 62.4792 293.358 99.83V147.285H278.763L270.313 129.702L272.426 147.285H178.615L170.934 131.301L172.854 147.285H162.292V110.024C162.292 67.0434 193.689 32.2004 232.418 32.2004Z" fill="#2F2E41"/>
<path id="Vector_10" d="M335.845 116.838L319.971 62.211C319.971 62.211 309.458 28.2115 291.951 28.9748C274.444 29.7382 302.676 70.2304 302.676 70.2304L314.918 103.428L317.536 115.872L335.845 116.838Z" fill="#A0616A"/>
<path id="Vector_11" d="M270.804 241.962L285.632 272.965L226.321 313.404L195.318 286.445C195.318 286.445 198.014 267.573 189.926 260.833C181.838 254.093 270.804 241.962 270.804 241.962Z" fill="#A0616A"/>
<path id="Vector_12" d="M254.629 119.296C254.629 119.296 234.409 148.951 237.105 152.995C239.801 157.039 189.926 144.907 189.926 144.907C189.926 144.907 215.537 111.208 215.537 101.772L254.629 119.296Z" fill="#A0616A"/>
<path id="Vector_13" opacity="0.2" d="M254.629 119.296C254.629 119.296 234.409 148.951 237.105 152.995C239.801 157.039 189.926 144.907 189.926 144.907C189.926 144.907 215.537 111.208 215.537 101.772L254.629 119.296Z" fill="black"/>
<path id="Vector_14" d="M241.627 123.198C259.135 123.198 273.328 109.005 273.328 91.4969C273.328 73.9889 259.135 59.7959 241.627 59.7959C224.119 59.7959 209.926 73.9889 209.926 91.4969C209.926 109.005 224.119 123.198 241.627 123.198Z" fill="#A0616A"/>
<path id="Vector_15" d="M199.362 119.296L246.541 138.168V148.951C246.541 148.951 276.196 144.907 282.936 148.951C289.676 152.995 300.46 182.651 300.46 182.651C300.46 182.651 327.419 223.09 317.984 227.134C308.548 231.178 291.024 235.222 284.284 244.658C277.544 254.094 226.321 255.441 226.321 255.441C226.321 255.441 207.45 260.833 199.362 268.921C191.274 277.009 175.098 268.921 175.098 268.921L167.01 138.168L192.622 130.08L199.362 119.296Z" fill="#3F3D56"/>
<path id="Vector_16" d="M276.196 154.343L291.024 150.299C291.024 150.299 313.94 146.255 313.94 143.559C313.94 140.864 311.244 138.168 313.94 138.168C316.636 138.168 322.028 138.168 319.332 134.124C316.636 130.08 320.68 123.34 315.288 120.644C309.896 117.948 305.852 116.6 308.548 115.252C311.244 113.904 301.808 92.3364 301.808 92.3364L309.896 88.2924L319.332 103.12L320.68 82.9005L335.507 80.2046L340.899 104.468C340.899 104.468 367.859 139.516 348.987 158.387C330.115 177.259 293.72 192.087 293.72 192.087L276.196 154.343Z" fill="#3F3D56"/>
<path id="Vector_17" d="M276.196 266.225L285.632 260.833C285.632 260.833 319.332 299.925 319.332 418.547C319.332 537.169 312.592 591.088 308.548 589.74C304.504 588.392 281.588 597.828 277.544 593.784C273.5 589.74 246.541 392.935 246.541 392.935C246.541 392.935 161.618 596.48 148.139 596.48C134.659 596.48 113.091 592.436 113.091 584.348C113.091 576.26 153.531 468.422 153.531 468.422C153.531 468.422 179.142 279.705 191.274 278.357L195.622 275.709L227.669 297.229L276.196 266.225Z" fill="#2F2E41"/>
<path id="Vector_18" d="M285.632 589.74H297.764C297.764 589.74 308.548 600.523 312.592 626.135C316.636 651.746 320.68 667.922 303.156 667.922C285.632 667.922 274.848 663.878 276.196 654.442C277.544 645.007 273.5 640.963 273.5 640.963C273.5 640.963 266.761 628.831 268.109 622.091C269.457 615.351 273.5 593.783 273.5 593.783L285.632 589.74Z" fill="#2F2E41"/>
<path id="Vector_19" d="M146.791 592.435C146.791 592.435 160.27 627.483 150.835 635.571C141.399 643.659 137.355 645.007 137.355 645.007C137.355 645.007 123.875 647.703 122.527 651.746C121.179 655.79 102.308 670.618 84.7838 662.53C67.2601 654.442 78.0439 636.919 78.0439 636.919L118.483 587.044C118.483 587.044 133.311 589.74 133.311 592.435C133.311 595.131 146.791 592.435 146.791 592.435Z" fill="#2F2E41"/>
<path id="Vector_20" d="M216.787 302.341C220.334 299.063 224.725 296.839 229.467 295.919L228.113 302.275C227.728 304.084 227.348 306.006 227.97 307.748C229.059 310.796 232.632 312.019 235.762 312.844C239.298 313.776 243.33 315.122 244.622 318.543C245.725 321.463 244.313 324.715 242.592 327.319C240.975 329.765 239.066 332.005 236.907 333.988C232.998 337.577 227.624 340.385 222.509 338.97C220.984 338.459 219.501 337.827 218.075 337.081C214.414 335.409 210.434 334.492 206.836 332.69C199.487 329.011 194.435 322.053 189.677 315.352C189.367 315.018 189.128 314.625 188.975 314.196C188.822 313.767 188.757 313.312 188.785 312.857C188.899 312.447 189.095 312.065 189.362 311.733C192.115 307.852 197.996 300.474 202.472 305.497C203.88 307.077 204.98 308.674 207.315 308.685C211.315 308.703 214.158 304.779 216.787 302.341Z" fill="#A0616A"/>
<path id="Vector_21" d="M176.446 140.863L167.01 138.167C167.01 138.167 149.487 138.167 144.095 165.127C138.703 192.087 131.963 277.009 138.703 290.489C145.443 303.969 179.142 332.276 179.142 332.276L206.102 306.665L189.926 290.489C189.926 290.489 185.882 291.837 185.882 286.445C185.882 281.053 191.274 283.749 185.882 281.053C180.49 278.357 181.838 282.401 180.49 278.357C179.142 274.313 176.446 140.863 176.446 140.863Z" fill="#3F3D56"/>
<path id="Vector_22" d="M214.023 52.6959C219.474 45.6774 227.514 41.2319 236.488 41.2319H237.554C258.104 41.2319 274.763 59.8272 274.763 82.7658V82.7659H267.877L266.765 74.3015L265.135 82.7659H224.296L220.874 75.6049L221.729 82.7659H213.695C209.946 101.385 215.333 120.003 229.856 138.622H216.17L209.327 124.3L211.037 138.622H184.948L179.816 105.681C179.816 81.0114 194.15 60.0921 214.023 52.6959Z" fill="#2F2E41"/>
</g>
<g id="triocirclecenter">
<path id="Vector_23" d="M624.648 0C531.732 0 456.151 75.581 456.151 168.497C456.125 192.281 461.161 215.799 470.925 237.486C497.332 296.096 556.292 336.994 624.648 336.994C669.329 336.969 712.172 319.209 743.766 287.615C775.36 256.021 793.12 213.178 793.145 168.497C793.145 75.5811 717.551 0 624.648 0ZM764.056 236.233C751.332 262.383 731.516 284.431 706.867 299.863C682.218 315.295 653.729 323.491 624.648 323.514C558.961 323.514 502.683 282.441 480.159 224.627C473.178 206.738 469.607 187.7 469.631 168.497C469.631 83.0218 539.173 13.4798 624.648 13.4798C710.123 13.4798 779.665 83.0218 779.665 168.497C779.695 191.97 774.355 215.14 764.056 236.233V236.233Z" fill="#3F3D56"/>
<path id="Vector_24" d="M772.198 249.793C757.644 276.191 736.28 298.204 710.329 313.54C684.379 328.877 654.792 336.976 624.648 336.994C556.292 336.994 497.332 296.096 470.925 237.486C473.823 233.052 476.901 228.765 480.159 224.627C502.683 282.441 558.961 323.514 624.648 323.514C653.729 323.491 682.219 315.295 706.867 299.863C731.516 284.431 751.332 262.383 764.056 236.233C766.968 240.614 769.681 245.134 772.198 249.793Z" fill="#AD0002"/>
</g>
<g id="trio circle left">
<path id="Vector_25" d="M531.853 399.944C520.028 378.75 500.883 362.593 478.003 354.498C455.123 346.403 430.076 346.925 407.553 355.967C385.031 365.009 366.576 381.951 355.645 403.62C344.714 425.289 342.056 450.2 348.169 473.687C354.282 497.175 368.747 517.629 388.855 531.219C408.963 544.81 433.335 550.605 457.408 547.52C481.481 544.435 503.605 532.681 519.635 514.458C535.666 496.236 544.505 472.796 544.498 448.525C544.489 431.519 540.136 414.797 531.853 399.944V399.944ZM444.693 540.336C426.552 540.322 408.822 534.93 393.744 524.842C378.666 514.754 366.916 500.423 359.981 483.66C353.046 466.896 351.235 448.453 354.779 430.661C358.323 412.869 367.061 396.526 379.89 383.699C392.719 370.872 409.063 362.136 426.855 358.595C444.648 355.054 463.091 356.867 479.853 363.805C496.616 370.743 510.946 382.494 521.031 397.573C531.117 412.653 536.506 430.384 536.518 448.525C536.578 460.6 534.243 472.567 529.65 483.734C525.056 494.901 518.295 505.046 509.756 513.584C501.217 522.122 491.07 528.882 479.903 533.474C468.735 538.065 456.768 540.398 444.693 540.336V540.336Z" fill="#3F3D56"/>
<path id="Vector_26" d="M544.497 448.526C544.506 466.503 539.657 484.148 530.462 499.596C521.267 515.043 508.069 527.719 492.263 536.283C476.457 544.847 458.63 548.98 440.668 548.246C422.706 547.513 405.276 541.938 390.222 532.114C388.501 527.847 387.069 523.47 385.935 519.011C403.102 533.35 424.916 540.925 447.275 540.311C469.634 539.697 491 530.938 507.354 515.679C523.709 500.42 533.928 479.713 536.088 457.45C538.249 435.187 532.204 412.901 519.088 394.782C523.454 396.214 527.719 397.939 531.854 399.945C540.164 414.786 544.518 431.516 544.497 448.526V448.526Z" fill="#AD0002"/>
</g>
<g id="trio circle right">
<path id="Vector_27" d="M804.603 348.721C791.497 348.721 778.518 351.303 766.41 356.319C754.301 361.334 743.299 368.686 734.031 377.953C724.763 387.221 717.412 398.223 712.396 410.332C707.38 422.441 704.799 435.419 704.799 448.526C704.799 461.632 707.38 474.61 712.396 486.719C717.412 498.828 724.763 509.83 734.031 519.098C743.299 528.365 754.301 535.717 766.41 540.733C778.518 545.748 791.497 548.33 804.603 548.33C805.25 548.33 805.884 548.33 806.531 548.303C832.828 547.796 857.862 536.928 876.19 518.062C894.517 499.197 904.656 473.859 904.402 447.558C904.148 421.256 893.522 396.119 874.833 377.611C856.145 359.103 830.905 348.72 804.603 348.721V348.721ZM824.944 538.058C812.346 540.919 799.287 541.089 786.619 538.558C773.951 536.027 761.96 530.851 751.429 523.368C740.898 515.886 732.065 506.265 725.506 495.136C718.947 484.006 714.811 471.618 713.367 458.781C711.924 445.943 713.205 432.946 717.128 420.637C721.051 408.329 727.527 396.987 736.133 387.352C744.739 377.718 755.281 370.008 767.07 364.726C778.86 359.445 791.631 356.71 804.549 356.701H804.603C827.184 356.7 848.973 365.019 865.807 380.07C882.641 395.12 893.338 415.846 895.855 438.286C898.372 460.726 892.532 483.306 879.45 501.712C866.369 520.117 846.964 533.057 824.944 538.058V538.058Z" fill="#3F3D56"/>
<path id="Vector_28" d="M824.944 538.058C819.174 542.096 813.004 545.529 806.531 548.303C805.884 548.33 805.25 548.33 804.603 548.33C779.902 548.329 756.079 539.169 737.741 522.621C719.402 506.073 707.852 483.313 705.323 458.742C702.795 434.17 709.467 409.535 724.051 389.598C738.634 369.662 760.093 355.842 784.276 350.811C791.218 352.07 798.012 354.044 804.549 356.701C791.631 356.711 778.861 359.446 767.073 364.729C755.285 370.011 744.744 377.721 736.139 387.355C727.534 396.989 721.058 408.331 717.136 420.638C713.213 432.946 711.932 445.943 713.376 458.78C714.819 471.616 718.955 484.004 725.513 495.133C732.071 506.262 740.904 515.882 751.434 523.365C761.964 530.847 773.954 536.023 786.621 538.555C799.288 541.087 812.347 540.918 824.944 538.058Z" fill="#AD0002"/>
</g>
<g id="text">
<text id="Trust" fill="black" xml:space="preserve" style="white-space: pre" font-family="Berlin Sans FB Demi" font-size="96" font-weight="600" letter-spacing="0em"><tspan x="518" y="202.547">Trust</tspan></text>
<text id="Learn" fill="black" xml:space="preserve" style="white-space: pre" font-family="Berlin Sans FB Demi" font-size="64" font-weight="600" letter-spacing="0em"><tspan x="365" y="459.031">Learn</tspan></text>
<text id="Help" fill="black" xml:space="preserve" style="white-space: pre" font-family="Berlin Sans FB Demi" font-size="64" font-weight="600" letter-spacing="0em"><tspan x="737" y="459.031">Help</tspan></text>
</g>
</g>
<defs>
<linearGradient id="paint0_linear" x1="764.5" y1="25.5" x2="78" y2="764.5" gradientUnits="userSpaceOnUse">
<stop stop-color="#35F3FF" stop-opacity="0.49"/>
<stop offset="1" stop-color="white" stop-opacity="0"/>
</linearGradient>
<clipPath id="clip0">
<rect width="1058.7" height="667.922" fill="white"/>
</clipPath>
</defs>
</svg>
